<svg xmlns="http://www.w3.org/2000/svg" width="1200" height="720" viewBox="0 0 1200 720">
  <rect width="1200" height="720" fill="#eef2ff"/>
  <rect x="80" y="60" width="1040" height="140" rx="24" fill="#111827"/>
  <text x="120" y="130" fill="#f9fafb" font-family="Inter, Arial, sans-serif" font-size="36" font-weight="700">Student Performance Prediction System</text>
  <text x="120" y="170" fill="#cbd5f5" font-family="Inter, Arial, sans-serif" font-size="18">Estimate pass/fail outcomes using study habits and academic history.</text>

  <rect x="80" y="230" width="1040" height="410" rx="24" fill="#ffffff"/>

  <rect x="120" y="270" width="480" height="70" rx="12" fill="#f8fafc" stroke="#d1d5db"/>
  <text x="140" y="315" fill="#374151" font-family="Inter, Arial, sans-serif" font-size="18">Gender</text>

  <rect x="620" y="270" width="480" height="70" rx="12" fill="#f8fafc" stroke="#d1d5db"/>
  <text x="640" y="315" fill="#374151" font-family="Inter, Arial, sans-serif" font-size="18">Parental Education</text>

  <rect x="120" y="360" width="480" height="70" rx="12" fill="#f8fafc" stroke="#d1d5db"/>
  <text x="140" y="405" fill="#374151" font-family="Inter, Arial, sans-serif" font-size="18">Study Time (hours/day)</text>

  <rect x="620" y="360" width="480" height="70" rx="12" fill="#f8fafc" stroke="#d1d5db"/>
  <text x="640" y="405" fill="#374151" font-family="Inter, Arial, sans-serif" font-size="18">Attendance (%)</text>

  <rect x="120" y="450" width="480" height="70" rx="12" fill="#f8fafc" stroke="#d1d5db"/>
  <text x="140" y="495" fill="#374151" font-family="Inter, Arial, sans-serif" font-size="18">Failures (past)</text>

  <rect x="620" y="450" width="480" height="70" rx="12" fill="#f8fafc" stroke="#d1d5db"/>
  <text x="640" y="495" fill="#374151" font-family="Inter, Arial, sans-serif" font-size="18">Previous Grade (%)</text>

  <rect x="120" y="560" width="220" height="56" rx="28" fill="#4f46e5"/>
  <text x="160" y="595" fill="#ffffff" font-family="Inter, Arial, sans-serif" font-size="18" font-weight="700">Predict</text>

  <rect x="380" y="560" width="720" height="56" rx="16" fill="#ecfdf3" stroke="#a7f3d0"/>
  <text x="410" y="595" fill="#047857" font-family="Inter, Arial, sans-serif" font-size="18" font-weight="700">Prediction: PASS 🎉</text>
</svg>
